<svg width="37" height="30" viewBox="0 0 37 30" fill="none" xmlns="http://www.w3.org/2000/svg">
<path d="M27.2614 22.0416L36.2122 18.9407C34.7933 16.8725 32.0643 16.0074 29.6257 16.8527C27.3494 17.6417 25.8672 19.7375 25.9559 22.0416C25.8675 24.3457 27.3496 26.4413 29.6257 27.2306C32.0645 28.0754 34.7934 27.2099 36.2122 25.1417L27.2614 22.0416Z" fill="#EB9138"/>
<path d="M10.8809 8.62793H27.7402V29.9983H10.8809V8.62793Z" fill="#FCF055"/>
<path d="M11.6582 8.54149C11.9063 4.11317 15.3934 0.654388 19.6138 0.650391C23.8334 0.655879 27.3192 4.11413 27.5677 8.54149H11.6582Z" fill="#5DC2A7"/>
<ellipse cx="22.6207" cy="14.195" rx="2.44269" ry="2.40778" transform="rotate(-90 22.6207 14.195)" fill="black"/>
<path fill-rule="evenodd" clip-rule="evenodd" d="M36.8153 18.925L36.4842 18.4111C34.9764 16.055 32.0631 15.0718 29.4658 16.0424C29.0358 16.2035 28.6256 16.4143 28.2431 16.6707V8.8703C28.2437 8.54224 28.2259 8.2144 28.1899 7.88838C27.6902 3.39474 23.9453 -0.00102673 19.4905 3.97195e-06C15.0329 -0.00423993 11.2843 3.39286 10.7847 7.88929H0.477336C0.350822 7.88905 0.229407 7.9399 0.139863 8.03062C0.0503192 8.12135 0 8.2445 0 8.37293C0.000239088 8.50119 0.0506641 8.62411 0.140182 8.71464C0.2297 8.80517 0.350978 8.85589 0.477336 8.85565H10.7279V30H28.2431V27.155C28.6246 27.4102 29.0336 27.6201 29.4622 27.7806C30.1199 28.0232 30.8143 28.1472 31.5141 28.147C33.5183 28.1461 35.386 27.1158 36.477 25.4091L36.8054 24.8989L28.7006 21.911L36.8153 18.925ZM29.7958 16.9561C30.3478 16.7514 30.9308 16.6466 31.5184 16.6465C32.9866 16.6455 34.3799 17.3046 35.3236 18.4464L28.2429 21.0542V17.8693C28.7011 17.4725 29.2264 17.1631 29.7931 16.9561H29.7958ZM27.2359 7.88882C26.737 3.93208 23.4198 0.967695 19.4902 0.966797C15.5602 0.967235 12.2426 3.93173 11.7437 7.88882H27.2359ZM27.2926 29.0363H11.6821V8.87109H27.2926V29.0363ZM28.2466 25.9582C28.7032 26.3557 29.2269 26.666 29.7923 26.8742V26.8705C31.7604 27.6068 33.9719 27.0107 35.3209 25.3802L28.2466 22.7725V25.9582Z" fill="black"/>
</svg>
